<svg id="_0524_facebook" xmlns="http://www.w3.org/2000/svg" xmlns:xlink="http://www.w3.org/1999/xlink" viewBox="0 0 500 500" data-imageid="facebook-77" imageName="Facebook" class="illustrations_image" style="width: 159px;"><defs><style>.cls-1_facebook-77{fill:url(#linear-gradient);}.cls-1_facebook-77,.cls-2_facebook-77,.cls-3_facebook-77,.cls-4_facebook-77,.cls-5_facebook-77,.cls-6_facebook-77,.cls-7_facebook-77,.cls-8_facebook-77,.cls-9_facebook-77,.cls-10_facebook-77,.cls-11_facebook-77,.cls-12_facebook-77,.cls-13_facebook-77,.cls-14_facebook-77,.cls-15_facebook-77,.cls-16_facebook-77{stroke-width:0px;}.cls-2_facebook-77{opacity:.18;}.cls-2_facebook-77,.cls-3_facebook-77{isolation:isolate;}.cls-2_facebook-77,.cls-3_facebook-77,.cls-16_facebook-77{fill:#68e1fd;}.cls-3_facebook-77{opacity:.41;}.cls-4_facebook-77{fill:url(#linear-gradient-4-facebook-77);}.cls-5_facebook-77{fill:url(#linear-gradient-2-facebook-77);}.cls-6_facebook-77{fill:url(#linear-gradient-3-facebook-77);}.cls-7_facebook-77{fill:url(#linear-gradient-7-facebook-77);}.cls-8_facebook-77{fill:url(#linear-gradient-5-facebook-77);}.cls-9_facebook-77{fill:url(#linear-gradient-6-facebook-77);}.cls-10_facebook-77{fill:#fab8ac;}.cls-11_facebook-77{fill:#77433c;}.cls-12_facebook-77{fill:#231f20;}.cls-13_facebook-77{fill:#db9e94;}.cls-14_facebook-77{fill:#c14834;}.cls-15_facebook-77{fill:#fff;}</style><linearGradient id="linear-gradient-facebook-77" x1="393.6" y1="4113.05" x2="494.89" y2="4113.05" gradientTransform="translate(-72.93 4347.83) scale(1 -1)" gradientUnits="userSpaceOnUse"><stop offset="0" stop-color="#231f20"/><stop offset=".08" stop-color="#231f20" stop-opacity=".69"/><stop offset=".21" stop-color="#231f20" stop-opacity=".32"/><stop offset="1" stop-color="#231f20" stop-opacity="0"/></linearGradient><linearGradient id="linear-gradient-2-facebook-77" x1="331.44" y1="4415.51" x2="331.44" y2="3443.96" xlink:href="#linear-gradient-facebook-77"/><linearGradient id="linear-gradient-3-facebook-77" x1="208.69" y1="4267.67" x2="380.33" y2="3948.68" gradientTransform="translate(-31 4387.76) scale(1 -1)" gradientUnits="userSpaceOnUse"><stop offset="0" stop-color="#231f20"/><stop offset=".13" stop-color="#231f20" stop-opacity=".69"/><stop offset=".25" stop-color="#231f20" stop-opacity=".32"/><stop offset="1" stop-color="#231f20" stop-opacity="0"/></linearGradient><linearGradient id="linear-gradient-4-facebook-77" x1="213.5" y1="4113.79" x2="331.71" y2="3977.78" gradientTransform="translate(-72.93 4347.83) scale(1 -1)" xlink:href="#linear-gradient-3-facebook-77"/><linearGradient id="linear-gradient-5-facebook-77" x1="99.99" y1="4152.77" x2="464.32" y2="3910.69" xlink:href="#linear-gradient-3-facebook-77"/><linearGradient id="linear-gradient-6-facebook-77" x1="182.48" y1="4224.04" x2="546.82" y2="3981.96" xlink:href="#linear-gradient-3-facebook-77"/><linearGradient id="linear-gradient-7-facebook-77" x1="219.46" y1="4166.47" x2="583.78" y2="3924.4" gradientTransform="translate(-3716.69 602.44) rotate(80.78) scale(1 -1)" xlink:href="#linear-gradient-3-facebook-77"/></defs><g id="background_facebook-77"><path class="cls-2_facebook-77 targetColor" d="M188.17,42.68c-22.21,14.03-37.18,36.88-50.48,59.55-9.82,16.72-19.19,33.9-31.52,48.97-5.32,6.51-11.69,14.77-19.12,18.69-7.43,3.93-16.42,5.43-24.07,9.79-30.19,17.17-51.76,49.82-53.46,84.74-.34,11.12.48,22.25,2.44,33.2,3.64,23.09,9.73,46.55,23.92,65.14,17.8,23.32,44.38,32.51,68.18,47.56,24.93,15.82,59.21,14.38,87.7,11.16,33.07-3.81,65.66-12.11,98.93-12.41,33.63-.32,68.93,7.29,99.84-5.97,12.12-5.2,22.72-13.34,33.17-21.39,18.55-14.29,37.71-29.32,47.98-50.32,6.15-12.59,8.71-26.66,9.85-40.62,4.39-53.71-13.6-110.88-54.72-145.7-15.47-13.14-33.73-22.85-48.19-37.01-16.95-16.66-27.99-38.82-46.01-54.28-32.08-27.49-108.68-33.72-144.45-11.11Z" style="fill: rgb(104, 225, 253);"/></g><g id="character_2_facebook-77"><path class="cls-16_facebook-77 targetColor" d="M380.04,201.77l-.3-.19c-2.13-1.16-4.31-2.08-6.51-3.18-2.56-1.31-5.09-2.66-7.55-4.16-4.69-2.88-12.24-7.78-19.45-5-7.22,2.77-9.32,11.39-10.57,18.02-.62,3.34-.22,6.76-.82,9.98-.72,3.84-3.78,8.04-5.98,11.17-.49.78-1.1,1.48-1.81,2.07-1.51,1.18-3.64,1.44-5,2.88-3.26,3.26,0,8.27,2.47,10.8,2.88,2.72,5.41,5.78,7.55,9.12,5.42,8.63,10.96,17.71,12.24,27.86l11.1-26.61c1.49-3.99,3.44-7.79,5.82-11.32,4.91-6.31,11.48-11.14,18.98-13.93,7.12-2.34,14.69,1.71,21.81-.69,6.1-2.06,9.63-8.25,12.58-13.99,3.62-7.03,7.26-14.38,7.38-22.31,0-.43-6.57-1.75-7.19-1.9-.93-.2-2.88-1.01-3.82-.75s-.85.85-1.05,1.94c-.82,4.73-3.21,8.99-5.54,13.11l-3.42,6.05c-.13.27-.32.52-.56.7-.26.14-.56.22-.86.22-5.64.39-11.18-1.67-15.2-5.65-1.26-1.58-2.7-3-4.28-4.24Z" style="fill: rgb(104, 225, 253);"/><path class="cls-1_facebook-77" d="M380.04,201.77l-.3-.19c-2.13-1.16-4.31-2.08-6.51-3.18-2.56-1.31-5.09-2.66-7.55-4.16-4.69-2.88-12.24-7.78-19.45-5-7.22,2.77-9.32,11.39-10.57,18.02-.62,3.34-.22,6.76-.82,9.98-.72,3.84-3.78,8.04-5.98,11.17-.49.78-1.1,1.48-1.81,2.07-1.51,1.18-3.64,1.44-5,2.88-3.26,3.26,0,8.27,2.47,10.8,2.88,2.72,5.41,5.78,7.55,9.12,5.42,8.63,10.96,17.71,12.24,27.86l11.1-26.61c1.49-3.99,3.44-7.79,5.82-11.32,4.91-6.31,11.48-11.14,18.98-13.93,7.12-2.34,14.69,1.71,21.81-.69,6.1-2.06,9.63-8.25,12.58-13.99,3.62-7.03,7.26-14.38,7.38-22.31,0-.43-6.57-1.75-7.19-1.9-.93-.2-2.88-1.01-3.82-.75s-.85.85-1.05,1.94c-.82,4.73-3.21,8.99-5.54,13.11l-3.42,6.05c-.13.27-.32.52-.56.7-.26.14-.56.22-.86.22-5.64.39-11.18-1.67-15.2-5.65-1.26-1.58-2.7-3-4.28-4.24Z"/><path class="cls-10_facebook-77" d="M370.06,180.73c-.78,3.71.2,11.63,5.75,13.01-2.3,1.42-3.58,4.03-3.29,6.71,0,0-3.77,3.06-10.88-8.63,0,0,2.95,1.35,5.45-4.85.9-2.12,1.27-4.42,1.08-6.71.21.61.88.93,1.49.71.15-.05.29-.14.41-.25Z"/><path class="cls-13_facebook-77" d="M369.64,182.59s-3.21,11,.89,12.78c4.1,1.78,7.19-4.31,7.19-4.31l-8.08-8.47Z"/><path class="cls-10_facebook-77" d="M372.1,192.31c5.45,3.7,11.93.33,16.52-6.27.49-.72.96-1.44,1.44-2.29,1.3-2.27,2.32-4.68,3.05-7.19,3.55-12.11-14.09-16.43-14.09-16.43-15-1.38-16.38,25.74-6.92,32.18Z"/><path class="cls-10_facebook-77" d="M412.3,192.13c.79.95,1.92,1.55,3.15,1.68.79.04,1.58-.03,2.36-.2.49-.07.98-.21,1.44-.4.71-.39,1.33-.91,1.83-1.54,1.14-1.28,2.21-2.62,3.22-4,.24-.29.4-.64.46-1.02.04-.1.04-.2,0-.3-.1-.18-.3-.29-.5-.29-1.04,0-1.67,1.35-2.7,1.44.62-.98,1.44-1.81,2.13-2.75.74-.9,1.13-2.04,1.09-3.21,0-.08-.03-.15-.07-.22-.13-.19-.42,0-.59.07-1.24.98-2.04,2.54-3.51,3.09.28-.93.66-1.83,1.14-2.67.56-1.27.8-2.66.69-4.04,0-.14,0-.33-.2-.36s-.16,0-.23.09c-.84.81-1.49,1.79-1.91,2.88-.52.95-1.21,1.81-2.04,2.52.18-1.32.26-2.66.24-4,0-.46-.13-1.04-.58-1.11-.69-.12-1.12,1.12-1.27,1.61-.27.94-.44,1.9-.52,2.88,0,.42-.09.83-.16,1.25-.27,1.65-1.09,3.17-2.31,4.31-.41-.75-.73-1.55-.95-2.37-.1-.32-.28-.62-.5-.88-.25-.24-.63-.29-.93-.12-.17.14-.27.34-.3.56-.17,1.22,0,2.47.47,3.61.08,1.23.44,2.42,1.06,3.48Z"/><path class="cls-14_facebook-77" d="M383.7,155.01c-2.21-.02-4.41.18-6.57.62-1.64.17-3.23.62-4.72,1.32-1.25.73-2.33,1.71-3.19,2.88-3.53,4.46-4.73,10.33-3.25,15.82-.33-2.59,1.6-4.86,3.39-6.76l3.12-3.29c.29-.33.62-.62.98-.86,1.55-.65,3.35-.21,4.41,1.09,1.15,1.16,1.88,2.69,3.06,3.82,2.53,2.49,6.44,2.67,9.75,3.97.52.15.98.47,1.29.91.25.6.28,1.28.07,1.9l-1.25,5.91c3.43-3.17,6.13-7.06,7.89-11.39,1.44-3.41-1.54-7.92-3.82-10.51-2.85-3.23-6.87-5.18-11.17-5.42Z"/></g><g id="character_1_facebook-77"><path class="cls-12_facebook-77" d="M162.55,174.98c-.49,4.13-5.39,10.64-5.39,10.64-2.39-2.47-1.44-4.46-1.44-4.46,1.75-.79,1.64-6.08.2-6.96-1.8-1.09-2.69.16-3.12,1.31-2.45-.37-4.65-1.74-6.05-3.78-.81-1.19-.65-5.95-5.65-5.15-5,.81-9.98,5.65-9.98,5.66-.24.23-1.44-2.3-1.44-2.47-.28-1.46-.1-2.97.53-4.31.81-1.44,2.76-2.31,4.07-3.18,2.06-1.32,4.13-2.59,6.25-3.8,2.08-1.36,4.42-2.29,6.87-2.72,4.6-.52,9.07,2.39,12.12,5.59s4.31,8.2,9.47,9c.51,0,1.01.16,1.44.45.43.51.63,1.19.53,1.85v3.98c-.1.72.07,1.44.47,2.04.62.7,1.73.65,2.6.99,1.53.84,2.46,2.48,2.39,4.23-.09,1.7-.01,3.41.23,5.1.29,1.12.89,2.11,1.24,3.21.64,2.59.44,5.32-.58,7.79-1.24,3.88-3.39,7.41-6.28,10.28-2.92,2.87-6.79,4.57-10.88,4.79-1.55-.17-3.12.07-4.56.69-.78.62-1.48,1.34-2.07,2.14-2.4,2.31-5.56,3.64-8.89,3.74-2.56.42-5.18-.09-7.39-1.44-2.1-1.44-3.15-4.63-1.67-6.73.4-.56.99-1.18.78-1.84-.16-.32-.39-.6-.68-.82-1.64-1.73-1.57-4.46.16-6.1.15-.15.32-.28.49-.4-1.85-2.08-1.67-5.25.39-7.12-.92-.85-1.96-1.56-3.09-2.11-1.15-.58-1.79-1.85-1.58-3.12.3-.56.64-1.1,1.01-1.61.95-1.78-.83-6.1-1.57-7.82-1.44-3.34-3.34-5.45-2.33-9.42,1.31-5.13,5.95-8.83,10.94-10.61,4-1.44,13.36-4.05,16.95-1.65,3.59,2.4,5.97,9.96,5.49,14.12Z"/><path class="cls-15_facebook-77" d="M144.65,202.11c.28-.3.58-.57.92-.81,1.85-1.06,3.77-1.99,5.75-2.79,2.56-1.31,5.09-2.67,7.55-4.16,4.69-2.88,12.24-7.78,19.45-5,7.22,2.77,9.32,11.37,10.57,18.02.62,3.32.22,6.76.82,9.98.7,3.84,3.78,8.04,5.98,11.17.5.77,1.11,1.47,1.81,2.07,1.44,1.18,3.64,1.44,5,2.88,1.32,1.56,1.69,3.73.95,5.64-.75,1.87-1.83,3.59-3.19,5.08-1.57,1.9-3.13,3.81-4.85,5.59-5.54,5.66-12.28,10.01-19.73,12.74-.51.25-1.08.33-1.64.22-.75-.23-1.11-1.04-1.44-1.75-2.31-5.61-5.58-10.78-9.66-15.27-3.67-4.01-8.37-6.02-11.92-10.21-2.11-2.52-5.56-6.74-5.89-10.06,0-.52.39-1.19.19-1.65s-1.62-1.21-2.19-1.6c-1.8-1.29-3.49-2.74-5.05-4.31-.26-.23-.45-.54-.55-.88-.02-.3.05-.6.19-.86,1.06-2.69,2.14-5.38,3.42-7.97.88-2.17,2.06-4.21,3.49-6.05Z"/><path class="cls-14_facebook-77" d="M154.54,180.85c.78,3.71-.2,11.63-5.68,12.94,2.3,1.41,3.59,4.03,3.29,6.71,0,0,3.77,3.06,10.88-8.63,0,0-2.88,1.44-5.45-4.85-.9-2.11-1.27-4.41-1.08-6.7-.16.62-.79,1-1.42.84-.21-.05-.4-.17-.55-.32Z"/><path class="cls-11_facebook-77" d="M154.96,182.7s3.21,10.98-.89,12.77-7.19-4.31-7.19-4.31l8.08-8.45Z"/><path class="cls-12_facebook-77" d="M131.23,164.66s-6.1,3.94-2.88,14.13c3.22,10.19,12.34,4.9,12.34,4.9l-3.45-18.99-6.01-.04Z"/><path class="cls-14_facebook-77" d="M152.5,192.41c-5.45,3.71-11.93.35-16.52-6.25-.49-.72-.96-1.44-1.44-2.29-1.29-2.27-2.32-4.68-3.05-7.19-3.55-12.11,14.09-16.43,14.09-16.43,15-1.38,16.32,25.74,6.92,32.16Z"/><path class="cls-12_facebook-77" d="M133.56,171.16c.31.22.65.4,1.01.55,3.69,1.41,7.67,1.9,11.59,1.44.95-.03,1.89-.25,2.76-.63.89-.38,1.55-1.15,1.8-2.08.13-.63,0-1.31.13-1.94,2.24,1.44,4.67,3.26,5.32,5.91-.21-.45-.33-.94-.35-1.44,0-.5.31-.94.78-1.12.73-.2,1.44.62,1.54,1.37.42,1.91-.6,3.68-.81,5.54-.2,1.98-.3,3.97-.3,5.97-.05.7.06,1.41.32,2.07.31.59.74,1.11,1.25,1.54.43-1.44.88-2.72,1.24-4.08.52-1.17.91-2.4,1.16-3.65.66-1.71,1.15-3.48,1.44-5.29.26-1.42.05-2.88-.59-4.17-.81-1.18-1.52-2.42-2.11-3.72-.51-1.72-1.21-3.38-2.07-4.96-.88-1.59-2.25-2.84-3.91-3.58-.98-.36-2.02-.56-3.06-.6-3.59-.31-7.2.21-10.55,1.54-2.57,1.04-4.88,2.66-6.73,4.73-1.34,1.52-1.96,2.7-1.15,4.72.24.75.7,1.42,1.31,1.93Z"/><path class="cls-14_facebook-77" d="M135.55,189.85c1.05.48,2.2.69,3.35.62.08,0,.17-.02.23-.07.02-.06.02-.12,0-.17-.04-.28-.15-.55-.32-.78-.89-1.35-2.54-5.28-4.76-4.44-.92.41-1.33,1.49-.92,2.41.02.04.04.08.06.12.52,1.22,1.52,1.48,2.36,2.31Z"/><path class="cls-14_facebook-77" d="M134.22,235.5c-.29,1.57-.02,3.18.76,4.57,1.27,1.36,3.05,2.13,4.92,2.11,6.75.67,13.55-.5,19.68-3.38,4.39-2.06,8.63-5.03,13.4-5.31.87.02,1.74-.09,2.57-.35,1.09-.53,1.92-1.49,2.29-2.65.92-2.44.63-5.18-.79-7.38-1.06-1.85-3.14-2.86-5.25-2.56-2.43.59-3.55,3.32-5.22,5.19-2.46,2.75-6.33,3.72-10.06,4.05s-7.43.17-10.96,1.25l2.1-3.67c.26-.38.39-.83.39-1.29-.1-.73-.88-1.15-1.55-1.44-1.93-.94-3.75-2.1-5.41-3.46-1.97-1.61-2.7-2.63-3.85.23-1.69,4.51-2.71,9.25-3.02,14.06Z"/></g><g id="phone_facebook-77"><path class="cls-15_facebook-77" d="M184.65,190.85c1.82,1.67,3.46,3.52,4.9,5.52l2.04,2.65c.48.51.8,1.16.92,1.85.1,1.28-2.06,1.96-2.88,2.65l-4.73,3.75c-3.09,2.44-6.2,4.87-9.35,7.28-1.18-1.63-2.15-3.4-2.88-5.28-.6-1.8-.76-3.74-1.28-5.58-.42-1.51-1.06-2.88-1.44-4.44-.85-3.16-.58-6.51.76-9.49,2.1-4.64,10.94-1.28,13.64.95l.27.14Z"/><rect class="cls-16_facebook-77 targetColor" x="169.31" y="60.69" width="178.32" height="344.8" rx="25.64" ry="25.64" style="fill: rgb(104, 225, 253);"/><rect class="cls-12_facebook-77" x="172.83" y="65.04" width="171.28" height="335.56" rx="24.79" ry="24.79"/><path class="cls-15_facebook-77" d="M339.45,92.63v276.93c-.13,13.07-10.84,23.56-23.91,23.44h-114.03c-4.17.01-8.26-1.06-11.89-3.11-7.41-4.09-12.02-11.87-12.05-20.33V92.63c.17-13.06,10.88-23.51,23.94-23.38h19.34v3.41c.1,4.57,2.93,8.64,7.19,10.31,1.4.55,2.88.83,4.39.83h52.97c6.29,0,11.41-5.04,11.5-11.33v-3.22h18.69c6.13-.01,12.04,2.31,16.52,6.5,4.68,4.37,7.34,10.48,7.35,16.88Z"/><rect class="cls-3_facebook-77 targetColor" x="181.6" y="282.64" width="154.23" height="94.16" style="fill: rgb(104, 225, 253);"/><circle class="cls-16_facebook-77 targetColor" cx="202.7" cy="305.85" r="12.28" style="fill: rgb(104, 225, 253);"/><path class="cls-16_facebook-77 targetColor" d="M229.02,295.06h84.61c1.79,0,3.23,1.45,3.23,3.23h0c0,1.79-1.45,3.23-3.23,3.23h-84.61c-1.79,0-3.23-1.45-3.23-3.23h0c0-1.79,1.45-3.23,3.23-3.23Z" style="fill: rgb(104, 225, 253);"/><path class="cls-16_facebook-77 targetColor" d="M229.02,309.63h48.02c1.79,0,3.23,1.45,3.23,3.23h0c0,1.79-1.45,3.23-3.23,3.23h-48.02c-1.79,0-3.23-1.45-3.23-3.23h0c0-1.79,1.45-3.23,3.23-3.23Z" style="fill: rgb(104, 225, 253);"/><rect class="cls-3_facebook-77 targetColor" x="181.6" y="175.74" width="154.23" height="100.69" style="fill: rgb(104, 225, 253);"/><circle class="cls-16_facebook-77 targetColor" cx="202.7" cy="198.95" r="12.28" transform="translate(-26.14 367.17) rotate(-80.78)" style="fill: rgb(104, 225, 253);"/><path class="cls-16_facebook-77 targetColor" d="M229.02,188.16h84.61c1.79,0,3.23,1.45,3.23,3.23h0c0,1.79-1.45,3.23-3.23,3.23h-84.61c-1.79,0-3.23-1.45-3.23-3.23h0c0-1.79,1.45-3.23,3.23-3.23Z" style="fill: rgb(104, 225, 253);"/><path class="cls-16_facebook-77 targetColor" d="M229.02,202.73h48.02c1.79,0,3.23,1.45,3.23,3.23h0c0,1.79-1.45,3.23-3.23,3.23h-48.02c-1.79,0-3.23-1.45-3.23-3.23h0c0-1.79,1.45-3.23,3.23-3.23Z" style="fill: rgb(104, 225, 253);"/><path class="cls-16_facebook-77 targetColor" d="M339.45,92.63v22.63h-161.88v-22.63c.17-13.06,10.88-23.51,23.94-23.38h19.34v3.41c.1,4.57,2.93,8.64,7.19,10.31,1.4.55,2.88.83,4.39.83h52.97c6.29,0,11.41-5.04,11.5-11.33v-3.22h18.69c6.13-.01,12.04,2.31,16.52,6.5,4.68,4.37,7.34,10.48,7.35,16.88Z" style="fill: rgb(104, 225, 253);"/><path class="cls-5_facebook-77" d="M339.45,92.63v22.63h-161.88v-22.63c.17-13.06,10.88-23.51,23.94-23.38h19.34v3.41c.1,4.57,2.93,8.64,7.19,10.31,1.4.55,2.88.83,4.39.83h52.97c6.29,0,11.41-5.04,11.5-11.33v-3.22h18.69c6.13-.01,12.04,2.31,16.52,6.5,4.68,4.37,7.34,10.48,7.35,16.88Z"/><rect class="cls-16_facebook-77 targetColor" x="188.13" y="97.49" width="75.3" height="13.36" style="fill: rgb(104, 225, 253);"/><path class="cls-16_facebook-77 targetColor" d="M292.55,101.11h29.78c1.46,0,2.65,1.18,2.65,2.65h0c0,1.46-1.18,2.65-2.65,2.65h-29.78c-1.46,0-2.65-1.18-2.65-2.65h0c0-1.46,1.18-2.65,2.65-2.65Z" style="fill: rgb(104, 225, 253);"/><circle class="cls-16_facebook-77 targetColor" cx="278.75" cy="103.75" r="7.89" style="fill: rgb(104, 225, 253);"/><rect class="cls-3_facebook-77 targetColor" x="181.6" y="125" width="154.23" height="44.53" style="fill: rgb(104, 225, 253);"/><circle class="cls-16_facebook-77 targetColor" cx="202.7" cy="148.22" r="12.28" transform="translate(23.92 324.57) rotate(-80.78)" style="fill: rgb(104, 225, 253);"/><path class="cls-16_facebook-77 targetColor" d="M229.02,137.43h84.61c1.79,0,3.23,1.45,3.23,3.23h0c0,1.79-1.45,3.23-3.23,3.23h-84.61c-1.79,0-3.23-1.45-3.23-3.23h0c0-1.79,1.45-3.23,3.23-3.23Z" style="fill: rgb(104, 225, 253);"/><path class="cls-16_facebook-77 targetColor" d="M229.02,151.99h48.02c1.79,0,3.23,1.45,3.23,3.23h0c0,1.79-1.45,3.23-3.23,3.23h-48.02c-1.79,0-3.23-1.45-3.23-3.23h0c0-1.79,1.45-3.23,3.23-3.23Z" style="fill: rgb(104, 225, 253);"/><rect class="cls-6_facebook-77" x="213.5" y="212.72" width="62.61" height="64.22" rx="5.32" ry="5.32"/><g id="sBnyiT_facebook-77"><path class="cls-16_facebook-77 targetColor" d="M211.09,268.74v-55.18c.05-.07.09-.15.12-.23.37-2.13,2.25-3.66,4.41-3.58h53.9c2.38-.05,4.35,1.84,4.4,4.23,0,.06,0,.12,0,.17v54c.03,2-1.32,3.75-3.25,4.24l-.56.19h-15.82v-27.13h7c.37,0,.53-.12.56-.47s.07-.91.12-1.35c.27-2.39.53-4.79.81-7.19,0-.3,0-.45-.36-.45h-7.76c-.2,0-.37,0-.37-.26,0-1.78,0-3.55.09-5.33,0-.53.12-1.06.33-1.55.43-.78,1.28-1.22,2.16-1.14,1.75-.07,3.49,0,5.23-.07q.69,0,.69-.68v-8.18c0-.59,0-.62-.62-.62h-6.58c-1.94-.04-3.88.22-5.75.76-2.16.63-3.99,2.04-5.15,3.97-1.07,1.96-1.63,4.15-1.64,6.38-.09,2.08,0,4.18,0,6.28,0,.36-.1.43-.45.42h-4.63c-.4,0-.56.12-.56.55v8.38c0,.4.12.55.52.53h5.09v27.13h-28.07l-.36-.13c-1.45-.3-2.64-1.32-3.16-2.7-.13-.32-.22-.63-.33-.99Z" style="fill: rgb(104, 225, 253);"/><path class="cls-15_facebook-77" d="M243.05,272.58v-27.13h-5.09c-.4,0-.52-.13-.52-.53v-8.38c0-.43.16-.55.56-.55h4.63c.35,0,.45,0,.45-.42v-6.28c0-2.23.57-4.42,1.64-6.38,1.15-1.93,2.99-3.34,5.15-3.97,1.87-.54,3.81-.8,5.75-.76h6.58c.59,0,.62,0,.62.62v8.17q0,.68-.69.68c-1.74,0-3.48,0-5.23.07-.88-.09-1.73.36-2.16,1.14-.21.49-.32,1.02-.33,1.55,0,1.78,0,3.55-.09,5.33,0,.3.17.26.37.26h7.85c.32,0,.4.14.36.45-.27,2.39-.53,4.79-.81,7.19,0,.45-.1.91-.12,1.35-.01.45-.19.49-.56.47h-7v27.13h-11.37Z"/></g></g><g id="like_icons_facebook-77"><path class="cls-4_facebook-77" d="M169.31,314.46s39.32,4.85,42.03-30.77c2.7-35.61-35.35-33.73-35.35-33.73,0,0-6.67,51-6.67,64.5Z"/><circle class="cls-16_facebook-77 targetColor" cx="172.66" cy="275.52" r="33.6" style="fill: rgb(104, 225, 253);"/><circle class="cls-8_facebook-77" cx="231.24" cy="342.8" r="30.01"/><circle class="cls-9_facebook-77" cx="313.73" cy="271.53" r="30.01"/><circle class="cls-7_facebook-77" cx="350.71" cy="329.09" r="30.01" transform="translate(-30.31 622.56) rotate(-80.78)"/><path class="cls-15_facebook-77" d="M156.15,279.05c.04.37.15.73.32,1.06.28.46.65.87,1.08,1.21,4.99,4.31,10.35,8.51,16.68,10.41.66.24,1.36.34,2.06.29.72-.07,1.33-.53,1.58-1.21.04-.3.11-.59.2-.88.47-1.01,2.17-.53,2.98-1.32.45-.56.54-1.34.22-1.98-.26-.65-.7-1.22-.95-1.88.92-.11,1.8-.45,2.56-.99.76-.56,1.09-1.54.82-2.44-.26-.66-.98-1.27-.76-1.96s.99-.79,1.57-1.11c1.28-.91,1.64-2.65.83-4-.84-1.28-2.11-2.21-3.58-2.63-1.47-.38-2.91-.86-4.31-1.44-.33-.17-.69-.39-.78-.75s.24-.95.59-1.34c2.4-2.42,3.5-5.85,2.96-9.22-.15-1.3-1.06-2.38-2.31-2.75-.85-.05-1.68.28-2.26.91-.56.63-1.04,1.32-1.44,2.06-2.67,4.31-6.86,8.37-12.24,8.21-.92,0-1.57-.47-2.39,0-.66.53-1.16,1.23-1.44,2.03-1.42,2.87-2.14,6.03-2.11,9.23.03.17.07.33.13.49Z"/><circle class="cls-16_facebook-77 targetColor" cx="360.48" cy="329.09" r="33.6" style="fill: rgb(104, 225, 253);"/><path class="cls-15_facebook-77" d="M343.99,332.63c.05.37.15.73.32,1.06.29.46.66.87,1.09,1.21,4.97,4.31,10.35,8.5,16.68,10.41.66.24,1.36.33,2.06.27.71-.06,1.32-.53,1.57-1.19.05-.3.12-.59.2-.88.47-1.02,2.17-.55,2.98-1.32.45-.56.54-1.34.22-1.98-.26-.66-.7-1.22-.93-1.9.91-.12,1.79-.45,2.54-.98.76-.56,1.09-1.54.82-2.44-.26-.68-.96-1.27-.76-1.97s.99-.78,1.57-1.11c1.28-.91,1.64-2.65.83-4-.84-1.28-2.11-2.2-3.58-2.62-1.47-.38-2.91-.86-4.31-1.44-.35-.14-.63-.42-.78-.76-.13-.49.26-.95.59-1.32,2.4-2.43,3.5-5.86,2.98-9.23-.29-1.24-1.06-2.56-2.33-2.73-.84-.06-1.67.27-2.24.89-.55.63-1.04,1.32-1.44,2.06-2.67,4.31-6.86,8.37-12.24,8.21-.92,0-1.55-.46-2.39,0-.66.52-1.16,1.23-1.44,2.03-1.42,2.87-2.15,6.03-2.13,9.23l.13.5Z"/><circle class="cls-16_facebook-77 targetColor" cx="226.97" cy="337.52" r="30.01" style="fill: rgb(104, 225, 253);"/><path class="cls-15_facebook-77" d="M226.05,332.6s-10.97-13.3-17.87-.7c-6.9,12.59,21.94,23.81,21.94,23.81,0,0,16.22-14.95,14.55-23.97s-16.63-12.55-18.62.86Z"/><circle class="cls-16_facebook-77 targetColor" cx="314.75" cy="265.49" r="30.01" style="fill: rgb(104, 225, 253);"/><path class="cls-15_facebook-77" d="M313.83,260.58s-10.97-13.3-17.87-.7c-6.9,12.59,21.93,23.81,21.93,23.81,0,0,16.23-14.95,14.56-23.97s-16.61-12.55-18.62.86Z"/></g></svg>