<svg version="1.1" id="Layer_1" xmlns="http://www.w3.org/2000/svg" xmlns:xlink="http://www.w3.org/1999/xlink" x="0px" y="0px" viewBox="0 0 500 500" style="width: 159px;" xml:space="preserve" data-imageid="social-media-2-68" imageName="Social Media 2" class="illustrations_image">
<style type="text/css">
	.st0_social-media-2-68{fill:#68E1FD;}
	.st1_social-media-2-68{fill:#093F68;}
	.st2_social-media-2-68{fill:#FFFFFF;}
	.st3_social-media-2-68{fill:#DFEAEF;}
	.st4_social-media-2-68{fill:#F56132;}
</style>
<g id="device_social-media-2-68">
	<path class="st0_social-media-2-68 targetColor" d="M177.9,104.7h131.8c11.2,0,20.3,9.1,20.3,20.3v252.2c0,11.2-9.1,20.3-20.3,20.3H177.9&#10;&#9;&#9;c-11.2,0-20.3-9.1-20.3-20.3V125C157.6,113.8,166.7,104.7,177.9,104.7z" style="fill: rgb(104, 225, 253);"/>
	<path class="st1_social-media-2-68" d="M310.5,399.3H177.1c-11.7,0-21.3-9.5-21.3-21.3V124.2c0-11.8,9.6-21.3,21.3-21.3h133.4&#10;&#9;&#9;c11.8,0,21.3,9.5,21.3,21.3V378C331.8,389.7,322.3,399.2,310.5,399.3z M177.1,106.5c-9.8,0-17.7,7.9-17.7,17.7V378&#10;&#9;&#9;c0,9.8,7.9,17.7,17.7,17.7h133.4c9.8,0,17.7-7.9,17.7-17.7V124.2c0-9.8-7.9-17.7-17.7-17.7H177.1z"/>
	<rect x="157.6" y="139.7" class="st2_social-media-2-68" width="172.4" height="220.7"/>
	<path class="st1_social-media-2-68" d="M330,362.2H157.6c-1,0-1.8-0.8-1.8-1.8V139.7c0-1,0.8-1.8,1.8-1.8h0H330c1,0,1.8,0.8,1.8,1.8c0,0,0,0,0,0&#10;&#9;&#9;v220.7C331.8,361.4,331,362.2,330,362.2C330,362.2,330,362.2,330,362.2z M159.4,358.6h168.8V141.5H159.5L159.4,358.6z"/>
	<path class="st3_social-media-2-68" d="M313.6,325.3H174c-1,0-1.8-0.8-1.8-1.8v-160c0-1,0.8-1.8,1.8-1.8c0,0,0,0,0,0h139.6c1,0,1.8,0.8,1.8,1.8&#10;&#9;&#9;c0,0,0,0,0,0v160C315.5,324.4,314.6,325.3,313.6,325.3L313.6,325.3z M175.8,321.6h136V165.2h-136L175.8,321.6z"/>
	<path class="st3_social-media-2-68" d="M255.5,340.1h-78.4c-1,0.1-1.9-0.7-1.9-1.7c-0.1-1,0.7-1.9,1.7-1.9c0.1,0,0.2,0,0.3,0h78.4&#10;&#9;&#9;c1-0.1,1.9,0.7,1.9,1.7c0.1,1-0.7,1.9-1.7,1.9C255.7,340.1,255.6,340.1,255.5,340.1z"/>
	<path class="st1_social-media-2-68" d="M250,127.2h-27.2c-1,0.1-1.9-0.7-1.9-1.7s0.7-1.9,1.7-1.9c0.1,0,0.2,0,0.3,0H250c1-0.1,1.9,0.7,1.9,1.7&#10;&#9;&#9;s-0.7,1.9-1.7,1.9C250.2,127.2,250.1,127.2,250,127.2z"/>
	<circle class="st1_social-media-2-68" cx="261.9" cy="125.3" r="3"/>
</g>
<g id="speech-bubble-3_social-media-2-68">
	<path class="st4_social-media-2-68" d="M242.6,154.9h-98.4c-4,0-7.3,3.3-7.3,7.3v46.6c0,4,3.2,7.3,7.2,7.3c0,0,0,0,0,0h78.1l11.9,15.3&#10;&#9;&#9;c0.4,0.5,1.1,0.6,1.6,0.2c0.3-0.2,0.5-0.6,0.4-0.9V216h6.4c4,0,7.3-3.2,7.3-7.3v-46.6C249.9,158.1,246.6,154.9,242.6,154.9z"/>
	<path class="st1_social-media-2-68" d="M235.1,233.5c-0.9,0-1.7-0.4-2.3-1.1l-11.3-14.6h-77.2c-5,0-9.1-4.1-9.1-9.1v-46.6c0-5,4.1-9.1,9.1-9.1h98.4&#10;&#9;&#9;c5,0,9.1,4.1,9.1,9.1v46.6c0,5-4.1,9.1-9.1,9.1H238v12.8c0,1.3-0.8,2.4-2,2.8C235.7,233.5,235.4,233.5,235.1,233.5z M144.2,156.7&#10;&#9;&#9;c-3,0-5.4,2.4-5.4,5.4v46.6c0,3,2.4,5.4,5.4,5.4h78.1c0.6,0,1.1,0.3,1.4,0.7l10.6,13.7V216c0-1,0.8-1.8,1.8-1.8h6.4&#10;&#9;&#9;c3,0,5.4-2.4,5.4-5.4v-46.6c0-3-2.4-5.4-5.4-5.4H144.2z"/>
	<path class="st2_social-media-2-68" d="M172.4,200.2c-0.7-0.6-1.4-1.3-2.1-1.9c-2-1.7-3.9-3.5-5.9-5.2c-1.3-1.1-2.6-2.3-3.8-3.6&#10;&#9;&#9;c-1.1-1.1-1.9-2.4-2.6-3.9c-0.4-1-0.7-2-0.8-3c-0.1-0.9-0.2-1.9-0.1-2.8c0.1-3.2,2.1-6,5.2-7.1c3-1.1,6.4-0.3,8.6,2&#10;&#9;&#9;c0.6,0.6,1,1.2,1.4,1.8l0.1,0.1c0-0.1,0.1-0.1,0.1-0.2c0.9-1.4,2.1-2.6,3.6-3.4c1.3-0.7,2.8-1,4.3-0.9c1.7,0.1,3.2,0.7,4.5,1.8&#10;&#9;&#9;c1.4,1.2,2.3,2.8,2.6,4.6c0.1,0.9,0.2,1.9,0.1,2.8c-0.1,1-0.2,2-0.5,3c-0.5,1.5-1.2,2.8-2.2,4c-1,1.2-2.2,2.4-3.4,3.4&#10;&#9;&#9;c-1.8,1.6-3.6,3.1-5.4,4.8c-1.2,1.1-2.4,2.2-3.6,3.3L172.4,200.2z"/>
	<path class="st2_social-media-2-68" d="M205.6,179.6l-5,4.4l-3-3.5l8.2-6.9h5v25.1h-5.1L205.6,179.6z"/>
	<path class="st2_social-media-2-68" d="M217.6,186.2c0-1.5,0.1-3,0.4-4.5c0.2-1.5,0.7-2.9,1.4-4.2c0.7-1.2,1.7-2.3,2.9-3.1c2.9-1.6,6.3-1.6,9.2,0&#10;&#9;&#9;c1.2,0.8,2.2,1.8,2.9,3.1c0.7,1.3,1.2,2.7,1.5,4.2c0.5,3,0.5,6.1,0,9.1c-0.2,1.5-0.7,2.9-1.5,4.2c-0.7,1.2-1.7,2.3-2.9,3.1&#10;&#9;&#9;c-2.9,1.6-6.3,1.6-9.2,0c-1.2-0.8-2.2-1.8-2.9-3.1c-0.7-1.3-1.2-2.7-1.4-4.2C217.7,189.2,217.6,187.7,217.6,186.2z M222.9,186.2&#10;&#9;&#9;c0,0.7,0,1.4,0.1,2.4c0.1,0.9,0.2,1.8,0.5,2.6c0.2,0.8,0.6,1.5,1.2,2.2c1.3,1.2,3.2,1.2,4.5,0c0.6-0.6,1-1.4,1.2-2.2&#10;&#9;&#9;c0.3-0.9,0.4-1.8,0.5-2.6c0.1-0.9,0.1-1.7,0.1-2.4s0-1.4-0.1-2.4c-0.1-0.9-0.2-1.8-0.5-2.7c-0.2-0.8-0.6-1.5-1.2-2.2&#10;&#9;&#9;c-1.3-1.2-3.2-1.2-4.5,0c-0.6,0.6-1,1.4-1.2,2.2c-0.3,0.9-0.4,1.8-0.5,2.7C222.9,184.8,222.9,185.5,222.9,186.2z"/>
</g>
<g id="speech-bubble-2_social-media-2-68">
	<path class="st4_social-media-2-68" d="M354.3,228.1h-90c-4.8,0-8.8,3.9-8.8,8.8V276c0,4.9,3.9,8.8,8.8,8.8h5.5v15.7c0,0.7,0.6,1.2,1.2,1.2&#10;&#9;&#9;c0.4,0,0.8-0.2,1-0.5l12.2-16.4h70c4.9,0,8.8-3.9,8.8-8.8v-39.1C363.1,232.1,359.1,228.1,354.3,228.1L354.3,228.1z"/>
	<path class="st1_social-media-2-68" d="M271,303.5c-0.3,0-0.7,0-1-0.1c-1.3-0.4-2.1-1.6-2.1-2.9v-13.9h-3.7c-5.9,0-10.6-4.7-10.6-10.6v-39.1&#10;&#9;&#9;c0-5.8,4.8-10.6,10.6-10.6h90c5.9,0,10.6,4.7,10.6,10.6V276c0,5.9-4.7,10.6-10.6,10.6h-69l-11.7,15.7&#10;&#9;&#9;C272.9,303.1,272,303.5,271,303.5z M264.3,230c-3.9,0-7,3.1-7,7v39c0,3.9,3.1,7,7,7h5.5c1,0,1.8,0.8,1.8,1.8c0,0,0,0,0,0v13.9&#10;&#9;&#9;l11.2-15c0.3-0.5,0.9-0.7,1.5-0.7h70c3.9,0,7-3.1,7-7v-39.1c0-3.9-3.1-7-7-7l0,0L264.3,230z"/>
	<path class="st2_social-media-2-68" d="M307.2,262.3c4.4-7.1,2.2-16.4-4.8-20.8c-7.1-4.4-16.4-2.2-20.8,4.8s-2.2,16.4,4.8,20.8&#10;&#9;&#9;c5.1,3.2,11.7,3,16.6-0.4l4.2,2.7V262.3z"/>
	<path class="st2_social-media-2-68" d="M332.9,247.3h-13.6V242h20.1v5.1l-11,22.3h-6.8L332.9,247.3z"/>
</g>
<g id="speech-bubble-1_social-media-2-68">
	<path class="st4_social-media-2-68" d="M222.1,270.6h-15.3v-9c0-3.3-2.6-5.9-5.9-5.9h-56.6c-3.3,0-5.9,2.7-5.9,5.9v41.8c0,3.3,2.7,5.9,5.9,5.9h56.6&#10;&#9;&#9;c3.3,0,5.9-2.7,5.9-5.9v-20.7l15.8-10.7c0.3-0.3,0.4-0.7,0.2-1.1C222.5,270.7,222.3,270.6,222.1,270.6z"/>
	<path class="st1_social-media-2-68" d="M200.8,311.1h-56.6c-4.3,0-7.7-3.5-7.8-7.8v-41.8c0-4.3,3.5-7.7,7.8-7.7h56.6c4.3,0,7.7,3.5,7.7,7.7v7.2h13.5&#10;&#9;&#9;c1.4,0,2.6,1.2,2.6,2.6c0,0.9-0.4,1.7-1.1,2.1l-15,10.1v19.8C208.5,307.7,205.1,311.1,200.8,311.1z M144.2,257.5&#10;&#9;&#9;c-2.3,0-4.1,1.8-4.1,4.1v41.8c0,2.3,1.8,4.1,4.1,4.1h56.6c2.3,0,4.1-1.8,4.1-4.1v-20.7c0-0.6,0.3-1.2,0.8-1.5l12.9-8.7h-11.9&#10;&#9;&#9;c-1,0-1.8-0.8-1.8-1.8v-9c0-2.3-1.8-4.1-4.1-4.1L144.2,257.5z M222.1,272.4L222.1,272.4z"/>
	<path class="st2_social-media-2-68" d="M166.3,287H163v-3.5h3.8l0.7-5h-3.3V275h3.8l1.1-8h3.8l-1.1,7.9h3.9l1.1-7.9h3.8l-1.1,7.9h3.3v3.5H179l-0.7,5&#10;&#9;&#9;h3.3v3.5h-3.8l-1.1,7.9h-3.9l1.1-7.9h-3.9l-1.1,8h-3.8L166.3,287z M175.2,278.5h-3.9l-0.7,5h3.9L175.2,278.5z"/>
</g>
</svg>